
<svg version="1.0" xmlns="http://www.w3.org/2000/svg"
 width="258.000000pt" height="80.000000pt" viewBox="0 0 258.000000 80.000000"
 preserveAspectRatio="xMidYMid meet">

<g transform="translate(0.000000,80.000000) scale(0.100000,-0.100000)"
fill="#000000" stroke="none">
<path d="M400 670 l-25 -6 0 -151 c0 -83 -3 -154 -6 -158 -8 -8 -58 111 -96
229 l-28 88 -53 -4 c-29 -3 -57 -9 -61 -14 -5 -5 -5 -38 1 -74 10 -64 4 -334
-8 -377 -5 -20 -2 -23 19 -23 53 0 52 -2 49 183 -2 106 0 168 6 162 5 -5 21
-45 36 -88 51 -147 88 -238 103 -253 11 -10 25 -13 47 -9 48 11 55 23 46 85
-5 30 -9 81 -9 113 -1 49 2 57 18 57 15 0 19 -10 23 -65 7 -77 33 -132 79
-163 29 -20 44 -23 97 -20 69 4 95 22 106 71 7 30 6 31 -47 16 -81 -22 -147
31 -147 119 l0 42 65 0 c53 0 66 3 75 19 5 11 10 22 10 25 0 3 -34 6 -76 6
-74 0 -75 1 -68 23 25 81 67 117 136 117 45 0 49 2 46 23 -3 19 -10 22 -61 25
-48 3 -66 -2 -102 -23 -44 -26 -87 -84 -100 -136 -4 -15 -18 -32 -32 -38 l-25
-11 7 77 c3 43 8 90 11 105 6 31 -2 37 -36 28z"/>
<path d="M824 671 c-54 -13 -57 -20 -25 -56 16 -19 44 -64 62 -102 l32 -68
-39 -73 c-21 -40 -60 -100 -86 -132 -50 -62 -49 -76 5 -65 46 10 50 16 98 115
23 50 45 90 48 90 3 0 23 -38 45 -84 47 -104 63 -121 110 -112 54 10 60 27 21
64 -33 33 -115 177 -115 204 0 7 20 43 44 79 46 69 64 79 139 79 l30 0 -7
-182 c-4 -101 -10 -200 -13 -221 l-6 -38 39 7 c65 11 67 17 61 122 -4 51 -4
142 0 202 l6 109 36 3 c26 2 39 10 50 30 9 15 13 28 11 30 -3 2 -79 1 -169 -2
l-164 -5 -40 -78 c-22 -43 -44 -74 -48 -70 -4 5 -17 33 -29 63 -24 61 -47 101
-58 99 -4 -1 -21 -4 -38 -8z"/>
<path d="M2157 674 c-3 -4 -29 -6 -58 -5 -89 2 -87 4 -91 -183 -3 -149 -5
-167 -24 -193 -14 -18 -32 -29 -52 -31 -50 -5 -55 16 -50 225 l5 183 -37 0
c-58 0 -71 -16 -59 -75 6 -29 7 -104 3 -181 -6 -118 -4 -135 14 -176 16 -36
27 -48 55 -57 41 -14 89 1 122 39 l20 22 5 -28 c4 -25 10 -29 40 -32 56 -4 61
4 48 83 -10 67 -5 331 7 343 9 9 32 -27 78 -118 l42 -85 0 -118 c0 -129 0
-128 64 -106 l31 11 -2 97 -3 96 49 90 c26 50 64 112 83 139 42 59 35 72 -34
60 l-48 -9 -6 -55 c-6 -56 -46 -153 -61 -148 -4 2 -32 50 -61 108 -49 99 -65
119 -80 104z"/>
<path d="M1480 661 c-21 -6 -24 -12 -20 -37 6 -36 7 -343 0 -404 -4 -45 -4
-45 25 -43 17 1 37 11 46 21 15 19 16 19 39 0 32 -26 128 -22 161 8 72 64 60
204 -21 238 l-30 12 29 22 c65 48 57 148 -13 177 -37 16 -170 19 -216 6z m153
-42 c29 -16 37 -28 37 -60 0 -33 -34 -77 -63 -81 -13 -2 -23 -11 -25 -24 -3
-18 3 -22 36 -27 46 -8 71 -32 78 -79 13 -78 -60 -137 -85 -68 -11 32 -29 38
-50 17 -10 -10 -12 17 -9 148 2 88 7 166 11 173 10 15 42 16 70 1z"/>
</g>
</svg>
